# xmcd
#
# Track frame offsets: 
#        150
#        19365
#        23168
#        34696
#        35401
#        52411
#        56664
#        72857
#        74500
#        91915
#        92020
#
# Disc length: 1464 seconds
#
# Revision: 0
# Processed by: cddbd v1.5.2PL0 Copyright (c) Steve Scherf et al.
# Submitted via: ExactAudioCopy v0.99pb5
#
DISCID=9805b60b
DTITLE=Highlands Country - October 10, 2010
DYEAR=2010
DGENRE=Country
TTITLE0=Boondocks
TTITLE1=Happy Anniversary Johners
TTITLE2=You Are The One I Love
TTITLE3=Talking
TTITLE4=Amazing Grace
TTITLE5=Prayer
TTITLE6=Can't Take Him Out Of Me
TTITLE7=This Is A New Song
TTITLE8=What Could Be Better
TTITLE9=Delete Me
TTITLE10=Without You
EXTD=
EXTT0=
EXTT1=
EXTT2=
EXTT3=
EXTT4=
EXTT5=
EXTT6=
EXTT7=
EXTT8=
EXTT9=
EXTT10=
PLAYORDER=
